<svg id="Layer_1" data-name="Layer 1" xmlns="http://www.w3.org/2000/svg" viewBox="0 0 126.95 102.65"><defs><style>.cls-1{fill:#2da9e0;}</style></defs><title>twitter_icon</title><path class="cls-1" d="M25.64,74.53C10.42,70.75,4.44,57.82,5,48.93A48.55,48.55,0,0,0,10.37,51a28.52,28.52,0,0,0,5.9.94C4.8,42.46,2.07,31.07,8.33,17.54c.92.35,1.21,1,1.64,1.48C23,33.55,39.19,42,58.61,44.15c1.21.14,2.72.77,3.57.12s0-2.25-.07-3.42A25.91,25.91,0,0,1,77,15.21a26.54,26.54,0,0,1,29.46,4.63,2.4,2.4,0,0,0,2.49.72,56.11,56.11,0,0,0,15.17-5.94,27.37,27.37,0,0,1-10.64,14,49,49,0,0,0,14-3.65,37.37,37.37,0,0,1-4.64,6,46.81,46.81,0,0,1-7.17,6.47,2.37,2.37,0,0,0-1.06,2.22A74.43,74.43,0,0,1,95.54,91.12a68.94,68.94,0,0,1-41,22.88c-18.15,3.21-35.39.65-51.58-8.35A14.13,14.13,0,0,1,.52,104c13.86.94,26.41-2.39,37.73-10.8C24.45,90.41,17.13,84.9,14.13,75A27.68,27.68,0,0,0,25.64,74.53Z" transform="translate(-0.52 -12.68)"/></svg>