<svg id="Layer_1" data-name="Layer 1" xmlns="http://www.w3.org/2000/svg" viewBox="0 0 126.07 126.09"><defs><style>.cls-1{fill:snow;}.cls-2{fill:#0d7ec4;}</style></defs><title>facebook_icon</title><rect class="cls-1" x="7.04" y="7.43" width="114.43" height="118.65"/><path class="cls-2" d="M1,64Q1,35.94,1,7.86A6.66,6.66,0,0,1,6.32,1.09,5.94,5.94,0,0,1,7.72,1H120.21A6.69,6.69,0,0,1,127,7.81q0,56.19,0,112.38a6.7,6.7,0,0,1-6.85,6.83c-10.23,0-20.46,0-30.69,0-1,0-1.38-.24-1.37-1.33q0-22.93,0-45.87c0-1.14.36-1.4,1.44-1.39,4.47.06,9,0,13.43,0,1.55,0,1.58,0,1.78-1.55.74-5.58,1.42-11.16,2.2-16.73.16-1.13-.26-1.29-1.2-1.28-5.35,0-10.7,0-16.05,0-1.57,0-1.57,0-1.57-1.55,0-3.5,0-7,0-10.49a16.54,16.54,0,0,1,.3-3.14c.69-3.46,2.74-5.41,6.27-5.62,3.81-.23,7.63-.19,11.45-.25,1.62,0,1.62,0,1.62-1.61,0-4.8,0-9.61,0-14.41,0-1.13-.36-1.6-1.44-1.63-5.52-.15-11.07-.73-16.55-.36-10.66.71-19,7-21.07,18.79a55,55,0,0,0-.64,8.13c-.1,3.57,0,7.14,0,10.7,0,1.43,0,1.43-1.47,1.44-4.51,0-9,0-13.54,0-1.07,0-1.44.3-1.43,1.43.06,5.57,0,11.14,0,16.71,0,1.42,0,1.42,1.48,1.42,4.55,0,9.1,0,13.65,0,1,0,1.3.31,1.3,1.3q0,23,0,46c0,1-.28,1.3-1.29,1.3q-29.59,0-59.2,0A6.62,6.62,0,0,1,1,120.35Q1,92.18,1,64Z" transform="translate(-0.96 -0.96)"/></svg>