<svg id="Layer_1" data-name="Layer 1" xmlns="http://www.w3.org/2000/svg" viewBox="0 0 24 24"><defs><style>.cls-1{fill:none;}.cls-2{fill:snow;}</style></defs><title>phone-24px</title><path class="cls-1" d="M0,0H24V24H0Z"/><path class="cls-2" d="M5.62,10.56a18,18,0,0,0,7.82,7.82L16,15.77a1.16,1.16,0,0,1,1.21-.28,13.54,13.54,0,0,0,4.24.67,1.19,1.19,0,0,1,1.18,1.19v4.14a1.18,1.18,0,0,1-1.18,1.18A20.15,20.15,0,0,1,1.33,2.51,1.18,1.18,0,0,1,2.51,1.33H6.66A1.18,1.18,0,0,1,7.85,2.51a13.5,13.5,0,0,0,.68,4.24A1.2,1.2,0,0,1,8.23,8Z"/></svg>